<svg xmlns="http://www.w3.org/2000/svg" viewBox="0 0 32 32">
  <rect width="32" height="32" rx="6" fill="#6B7B5E"/>
  <g fill="#F8F7F3">
    <!-- Wrench -->
    <path d="M8 11c0-2.2 1.8-4 4-4 1.1 0 2.1.4 2.8 1.2l-1.4 1.4c-.4-.3-.9-.5-1.4-.5-1.1 0-2 .9-2 2s.9 2 2 2c.5 0 1-.2 1.4-.5l1.4 1.4c-.7.8-1.7 1.2-2.8 1.2-2.2 0-4-1.8-4-4z"/>
    <rect x="13" y="10" width="2" height="8" rx="1" transform="rotate(45 14 14)"/>
    <!-- Leaf -->
    <path d="M20 8c3 0 5 2 5 5 0 4-4 7-7 9-1-2-2-4-2-6 0-3 2-6 4-8z"/>
    <path d="M18 14c2-1 4-2 5-2" stroke="#6B7B5E" stroke-width="1.5" stroke-linecap="round" fill="none"/>
  </g>
</svg>
